<svg width="225" height="225" version="1.1" xmlns="http://www.w3.org/2000/svg" desc="Created with imagetracer.js version 1.2.6" ><path fill="rgb(237,16,16)" stroke="rgb(237,16,16)" stroke-width="1" opacity="1" d="M 103.5 2 L 121 2.5 L 103.5 3 L 103.5 2 Z " /><path fill="rgb(237,16,16)" stroke="rgb(237,16,16)" stroke-width="1" opacity="1" d="M 95.5 3 L 99 3.5 L 95.5 4 L 95.5 3 Z " /><path fill="rgb(237,16,16)" stroke="rgb(237,16,16)" stroke-width="1" opacity="1" d="M 126.5 3 L 130 3.5 L 126.5 4 L 126.5 3 Z " /><path fill="rgb(237,16,16)" stroke="rgb(237,16,16)" stroke-width="1" opacity="1" d="M 90.5 4 L 94 4.5 L 90.5 5 L 90.5 4 Z " /><path fill="rgb(237,16,16)" stroke="rgb(237,16,16)" stroke-width="1" opacity="1" d="M 131.5 4 L 136 4.5 L 131.5 5 L 131.5 4 Z " /><path fill="rgb(237,16,16)" stroke="rgb(237,16,16)" stroke-width="1" opacity="1" d="M 78.5 7 L 80 7.5 L 73.5 10 L 73.5 9 L 78.5 7 Z " /><path fill="rgb(237,16,16)" stroke="rgb(237,16,16)" stroke-width="1" opacity="1" d="M 145.5 7 L 149 8.5 L 147.5 9 L 145.5 7 Z " /><path fill="rgb(237,16,16)" stroke="rgb(237,16,16)" stroke-width="1" opacity="1" d="M 70.5 10 L 69.5 12 L 68 11.5 L 70.5 10 Z " /><path fill="rgb(237,16,16)" stroke="rgb(237,16,16)" stroke-width="1" opacity="1" d="M 153.5 10 L 157 11.5 L 155.5 12 L 153.5 10 Z " /><path fill="rgb(237,16,16)" stroke="rgb(237,16,16)" stroke-width="1" opacity="1" d="M 56.5 17 L 55.5 19 L 56.5 17 Z " /><path fill="rgb(237,16,16)" stroke="rgb(237,16,16)" stroke-width="1" opacity="1" d="M 168.5 17 L 169.5 19 L 168.5 17 Z " /><path fill="rgb(237,16,16)" stroke="rgb(237,16,16)" stroke-width="1" opacity="1" d="M 53.5 19 L 52.5 21 L 53.5 19 Z " /><path fill="rgb(237,16,16)" stroke="rgb(237,16,16)" stroke-width="1" opacity="1" d="M 171.5 19 L 172.5 21 L 171.5 19 Z " /><path fill="rgb(237,16,16)" stroke="rgb(237,16,16)" stroke-width="1" opacity="1" d="M 50.5 21 L 49.5 23 L 50.5 21 Z " /><path fill="rgb(237,16,16)" stroke="rgb(237,16,16)" stroke-width="1" opacity="1" d="M 174.5 21 L 175.5 23 L 174.5 21 Z " /><path fill="rgb(237,16,16)" stroke="rgb(237,16,16)" stroke-width="1" opacity="1" d="M 47.5 23 L 45.5 26 L 47.5 23 Z " /><path fill="rgb(237,16,16)" stroke="rgb(237,16,16)" stroke-width="1" opacity="1" d="M 177.5 23 L 179.5 26 L 177.5 23 Z " /><path fill="rgb(237,16,16)" stroke="rgb(237,16,16)" stroke-width="1" opacity="1" d="M 43.5 26 L 39.5 31 L 43.5 26 Z " /><path fill="rgb(237,16,16)" stroke="rgb(237,16,16)" stroke-width="1" opacity="1" d="M 181.5 26 L 185.5 31 L 181.5 26 Z " /><path fill="rgb(237,16,16)" stroke="rgb(237,16,16)" stroke-width="1" opacity="1" d="M 36.5 32 L 38 32.5 L 33 36.5 L 32.5 38 L 32 36.5 L 36.5 32 Z " /><path fill="rgb(237,16,16)" stroke="rgb(237,16,16)" stroke-width="1" opacity="1" d="M 187.5 32 L 192 35.5 L 188.5 33 L 187.5 32 Z " /><path fill="rgb(237,16,16)" stroke="rgb(237,16,16)" stroke-width="1" opacity="1" d="M 30.5 39 L 26.5 44 L 30.5 39 Z " /><path fill="rgb(237,16,16)" stroke="rgb(237,16,16)" stroke-width="1" opacity="1" d="M 194.5 39 L 198.5 44 L 194.5 39 Z " /><path fill="rgb(237,16,16)" stroke="rgb(237,16,16)" stroke-width="1" opacity="1" d="M 25.5 45 L 23.5 48 L 25.5 45 Z " /><path fill="rgb(237,16,16)" stroke="rgb(237,16,16)" stroke-width="1" opacity="1" d="M 199.5 45 L 201.5 48 L 199.5 45 Z " /><path fill="rgb(237,16,16)" stroke="rgb(237,16,16)" stroke-width="1" opacity="1" d="M 22.5 49 L 21.5 51 L 22.5 49 Z " /><path fill="rgb(237,16,16)" stroke="rgb(237,16,16)" stroke-width="1" opacity="1" d="M 202.5 49 L 203.5 51 L 202.5 49 Z " /><path fill="rgb(237,16,16)" stroke="rgb(237,16,16)" stroke-width="1" opacity="1" d="M 20.5 52 L 19.5 54 L 20.5 52 Z " /><path fill="rgb(237,16,16)" stroke="rgb(237,16,16)" stroke-width="1" opacity="1" d="M 204.5 52 L 205.5 54 L 204.5 52 Z " /><path fill="rgb(237,16,16)" stroke="rgb(237,16,16)" stroke-width="1" opacity="1" d="M 18.5 55 L 17.5 57 L 18.5 55 Z " /><path fill="rgb(237,16,16)" stroke="rgb(237,16,16)" stroke-width="1" opacity="1" d="M 206.5 55 L 207.5 57 L 206.5 55 Z " /><path fill="rgb(237,16,16)" stroke="rgb(237,16,16)" stroke-width="1" opacity="1" d="M 11.5 68 L 12 69.5 L 10 70.5 L 11.5 68 Z " /><path fill="rgb(237,16,16)" stroke="rgb(237,16,16)" stroke-width="1" opacity="1" d="M 213.5 68 L 215 71.5 L 214 71.5 L 213.5 68 Z " /><path fill="rgb(237,16,16)" stroke="rgb(237,16,16)" stroke-width="1" opacity="1" d="M 9.5 73 L 10 74.5 L 7.5 80 L 7 78.5 L 9.5 73 Z " /><path fill="rgb(237,16,16)" stroke="rgb(237,16,16)" stroke-width="1" opacity="1" d="M 216.5 76 L 218 79.5 L 217 79.5 L 216.5 76 Z " /><path fill="rgb(237,16,16)" stroke="rgb(237,16,16)" stroke-width="1" opacity="1" d="M 220.5 89 L 221 93.5 L 220 93.5 L 220.5 89 Z " /><path fill="rgb(237,16,16)" stroke="rgb(237,16,16)" stroke-width="1" opacity="1" d="M 4.5 90 L 5 93.5 L 4 93.5 L 4.5 90 Z " /><path fill="rgb(237,16,16)" stroke="rgb(237,16,16)" stroke-width="1" opacity="1" d="M 3.5 95 L 4 98.5 L 3 98.5 L 3.5 95 Z " /><path fill="rgb(237,16,16)" stroke="rgb(237,16,16)" stroke-width="1" opacity="1" d="M 221.5 95 L 222 98.5 L 221 98.5 L 221.5 95 Z " /><path fill="rgb(237,16,16)" stroke="rgb(237,16,16)" stroke-width="1" opacity="1" d="M 2.5 103 L 3 111.5 L 2 111.5 L 2.5 103 Z " /><path fill="rgb(237,16,16)" stroke="rgb(237,16,16)" stroke-width="1" opacity="1" d="M 222.5 104 L 223 111.5 L 222 111.5 L 222.5 104 Z " /><path fill="rgb(254,0,0)" stroke="rgb(254,0,0)" stroke-width="1" opacity="1" d="M 99.5 3 L 125.5 3 L 144.5 7 L 167.5 17 L 187 31 Q 185.9 33.7 188.5 33 L 192 38 Q 194.7 36.9 194 39.5 Q 207.7 52.8 215 72.5 L 220 87.5 L 220 93.5 L 222 99.5 L 222 112 L 3.5 112 L 3 111.5 L 3 99.5 L 5 93.5 L 5 87.5 L 10 74.5 L 10 71.5 L 17 57.5 L 31 38 Q 33.7 39.1 33 36.5 L 38 33 Q 36.9 30.3 39.5 31 L 57.5 17 L 71.5 10 L 74.5 10 L 87.5 5 L 93.5 5 L 99.5 3 Z " /><path fill="rgb(238,233,233)" stroke="rgb(238,233,233)" stroke-width="1" opacity="1" d="M 14 0 L 28 0 L 28 14 L 42 14 L 42 0 L 56 0 L 56 14 L 61.5 14 L 71 8.5 L 70 7.5 L 70 0 L 83.5 0 L 84 5 L 85.5 5 L 89.5 4 L 89.5 5 Q 52.9 12.9 32 36.5 Q 13.5 55.5 5.5 85 L 0 84 L 0 70 L 7.5 70 Q 8.8 72.3 10 69.5 L 14 61.5 L 14 56 L 0 56 L 0 42 L 14 42 L 14 28 L 0 28 L 0 14 L 14 14 L 14 0 Z M 14 14 L 14 28 L 28 28 L 28 14 L 14 14 Z M 42 14 L 43 26 L 56 17 L 56 14 L 42 14 Z M 28 28 L 28 40 L 29 40 Q 28 37 31 38 L 37 31 Q 39 32 38 29 L 40 29 L 28 28 Z M 14 42 L 14 56 L 17 56 L 26 43 L 14 42 Z " /><path fill="rgb(238,233,233)" stroke="rgb(238,233,233)" stroke-width="1" opacity="1" d="M 99 0 L 111.5 0 L 118 1.5 L 103.5 2 L 102.5 3 L 91.5 4 L 91.5 3 L 99 2 L 99 0 Z " /><path fill="rgb(238,233,233)" stroke="rgb(238,233,233)" stroke-width="1" opacity="1" d="M 127 0 L 139.5 0 L 140 2.5 L 140.5 5 L 146 6.5 L 143.5 7 L 135.5 4 L 121 2.5 L 127 2 L 127 0 Z " /><path fill="rgb(238,233,233)" stroke="rgb(238,233,233)" stroke-width="1" opacity="1" d="M 155 0 L 169 0 L 169 14 L 183 14 L 183 0 L 197 0 L 197 14 L 211 14 L 211 0 L 225 0 L 225 14 L 211 14 L 211 28 L 225 28 L 225 42 L 211 42 L 211 56 L 225 56 L 225 70 L 216.5 70 L 216 72.5 L 218 77.5 L 217 77.5 Q 208 49.5 188.5 32 Q 171.8 15.7 147 7.5 L 148.5 7 L 155 9 L 155 0 Z M 166 14 Q 165 16 169 16 Q 170 13 166 14 Z M 183 14 L 183 27 L 185 28 L 197 28 L 197 14 L 183 14 Z M 197 28 L 197 41 L 199 42 L 211 42 L 211 28 L 197 28 Z M 209 56 L 210 60 L 211 60 Q 212 55 209 56 Z " /><path fill="rgb(238,233,233)" stroke="rgb(238,233,233)" stroke-width="1" opacity="1" d="M 218.5 80 L 220 85 L 223.5 84 L 225 85.5 L 225 98 Q 221 96.6 223 103.5 L 222 103.5 L 221 89.5 L 218.5 80 Z " /><path fill="rgb(238,233,233)" stroke="rgb(238,233,233)" stroke-width="1" opacity="1" d="M 4.5 86 L 5 89.5 L 4 89.5 L 4.5 86 Z " /><path fill="rgb(238,233,233)" stroke="rgb(238,233,233)" stroke-width="1" opacity="1" d="M 3.5 91 L 4 94.5 L 3 95.5 L 2 112 L 222.5 112 Q 223.5 112 223 107.5 L 224 107.5 L 225 126 Q 220.9 127.7 222 123.5 L 223 122.5 L 223 113 L 1.5 113 L 0 111.5 L 0 99.5 Q 3 100.5 2 95.5 L 3.5 91 Z " /><path fill="rgb(238,233,233)" stroke="rgb(238,233,233)" stroke-width="1" opacity="1" d="M 0 127 Q 4.9 125.2 3 131.5 L 5 140 L 0 140 L 0 127 Z " /><path fill="rgb(238,233,233)" stroke="rgb(238,233,233)" stroke-width="1" opacity="1" d="M 219 141 L 225 141 L 225 155 L 215.5 155 L 215 153.5 L 219 141 Z " /><path fill="rgb(238,233,233)" stroke="rgb(238,233,233)" stroke-width="1" opacity="1" d="M 0 155 L 10.5 155 L 11 156.5 Q 15.2 160.7 14 169 L 18 169 L 18 170.5 L 27 182.5 L 14 183 L 14 197 L 28 197 L 28 185.5 L 30 185 L 30 186.5 L 40 196.5 L 28 197 L 28 211 L 42 211 L 42.5 198 L 56 207 L 56 211 L 62.5 211 L 70 214 L 70 225 L 56 225 L 56 211 L 42 211 L 42 225 L 28 225 L 28 211 L 14 211 L 14 225 L 0 225 L 0 211 L 14 211 L 14 197 L 0 197 L 0 183 L 14 183 L 14 169 L 0 169 L 0 155 Z " /><path fill="rgb(238,233,233)" stroke="rgb(238,233,233)" stroke-width="1" opacity="1" d="M 210.5 164 L 211 169 L 225 169 L 225 183 L 211 183 L 211 197 L 225 197 L 225 211 L 211 211 L 211 225 L 197 225 L 197 211 L 183 211 L 183 225 L 169 225 L 169 211 L 164.5 211 L 164.5 210 L 169 208 L 169.5 211 L 183 211 L 183 197 L 197 197 L 197 183 L 211 183 L 211 169 Q 207.3 170.5 208 167.5 L 210.5 164 Z M 197 197 L 197 211 L 211 211 L 211 197 L 197 197 Z " /><path fill="rgb(238,233,233)" stroke="rgb(238,233,233)" stroke-width="1" opacity="1" d="M 153.5 215 L 155 215.5 L 155 225 L 141 225 L 141 219 L 153.5 215 Z " /><path fill="rgb(238,233,233)" stroke="rgb(238,233,233)" stroke-width="1" opacity="1" d="M 85 220 L 98 222 L 97.5 225 L 85 225 L 85 220 Z " /><path fill="rgb(238,233,233)" stroke="rgb(238,233,233)" stroke-width="1" opacity="1" d="M 123.5 222 Q 127.7 220.9 126 225 L 113.5 225 L 113 223 L 122.5 223 L 123.5 222 Z " /><path fill="rgb(254,254,254)" stroke="rgb(254,254,254)" stroke-width="1" opacity="1" d="M 0 0 L 14 0 L 14 14 L 28 14 L 28 0 L 42 0 L 42 14 L 56 14 L 56 0 L 70 0 L 70 7.5 L 71 8.5 L 61.5 14 L 56 14 L 54.5 18 L 42.5 26 L 42 14 L 28 14 L 28 28 L 40 28.5 L 38 29 Q 39.1 31.7 36.5 31 L 31 38 Q 28.3 36.9 29 39.5 L 28 39.5 L 28 28 L 14 28 L 14 42 L 25.5 42 L 25 43.5 L 16.5 56 L 14 56 L 14 61.5 L 8.5 71 L 7.5 70 L 0 70 L 0 56 L 14 56 L 14 42 L 0 42 L 0 28 L 14 28 L 14 14 L 0 14 L 0 0 Z " /><path fill="rgb(254,254,254)" stroke="rgb(254,254,254)" stroke-width="1" opacity="1" d="M 84 0 L 98.5 0 L 99 2 L 84 5 L 84 0 Z " /><path fill="rgb(254,254,254)" stroke="rgb(254,254,254)" stroke-width="1" opacity="1" d="M 112.5 0 L 126.5 0 L 127 2 L 112.5 1 L 112.5 0 Z " /><path fill="rgb(254,254,254)" stroke="rgb(254,254,254)" stroke-width="1" opacity="1" d="M 140 0 L 155 0 L 155 9 L 140 4.5 L 140 2.5 L 140 0 Z " /><path fill="rgb(254,254,254)" stroke="rgb(254,254,254)" stroke-width="1" opacity="1" d="M 169 0 L 183 0 L 183 14 L 197 14 L 197 0 L 211 0 L 211 14 L 225 14 L 225 28 L 211 28 L 211 42 L 225 42 L 225 56 L 211.5 56 L 211 59.5 L 210 59.5 L 209 56 L 211 55.5 L 211 42 L 198.5 42 L 197 40.5 L 197 28 L 184.5 28 L 183 26.5 L 183 14 L 169.5 14 L 169 16 L 167.5 16 L 165 14.5 L 169 14 L 169 0 Z M 197 14 L 197 28 L 211 28 L 211 14 L 197 14 Z " /><path fill="rgb(254,254,254)" stroke="rgb(254,254,254)" stroke-width="1" opacity="1" d="M 216 70 L 225 70 L 225 84.5 L 222.5 85 Q 218.8 86.3 220 82.5 L 218 79.5 L 216 70 Z " /><path fill="rgb(254,254,254)" stroke="rgb(254,254,254)" stroke-width="1" opacity="1" d="M 0 84 L 5 84 L 5 85.5 L 2 99 L 0 98.5 L 0 84 Z " /><path fill="rgb(254,254,254)" stroke="rgb(254,254,254)" stroke-width="1" opacity="1" d="M 223 98 L 225 98.5 L 225 112.5 L 224 112.5 L 223 98 Z " /><path fill="rgb(254,254,254)" stroke="rgb(254,254,254)" stroke-width="1" opacity="1" d="M 0.5 112 L 1.5 113 L 223 113 Q 224 121.4 222 126 L 225 126.5 L 225 141 L 219 141 L 219 143.5 L 215 155 L 225 155 L 225 169 L 211 169 L 211 183 L 225 183 L 225 197 L 211 197 L 211 211 L 225 211 L 225 225 L 211 225 L 211 211 L 197 211 L 197 225 L 183 225 L 183 211 L 169 211 L 169 225 L 155 225 L 155 215.5 L 153.5 215 L 141 219 L 141 225 L 126 225 Q 127.7 220.9 123.5 222 L 122.5 223 L 113 223 L 112.5 225 L 98 225 Q 99.8 220.5 94.5 222 L 85 220 L 85 225 L 70 225 L 70 214.5 L 68.5 214 Q 64.3 209.8 56 211 L 56 225 L 42 225 L 42 211 L 28 211 L 28 225 L 14 225 L 14 211 L 0 211 L 0 197 L 14 197 L 14 183 L 0 183 L 0 169 L 14 169 L 14 162.5 L 11 155 L 0 155 L 0 140 L 5 140 L 5 136.5 L 3 127 L 0 126.5 L 0.5 112 Z M 211 164 L 208 168 Q 207 170 211 169 L 211 164 Z M 14 169 L 14 183 L 27 183 L 18 171 L 18 169 L 14 169 Z M 197 183 L 197 197 L 211 197 L 211 183 L 197 183 Z M 28 185 L 28 197 L 40 197 L 30 187 Q 31 184 28 185 Z M 14 197 L 14 211 L 28 211 L 28 197 L 14 197 Z M 183 197 L 183 211 L 197 211 L 197 197 L 183 197 Z M 43 198 L 42 211 L 56 211 L 56 207 L 43 198 Z M 168 208 L 164 211 L 169 211 Q 170 207 168 208 Z " /></svg>